<svg width="48" height="53" viewBox="0 0 48 53" fill="none" xmlns="http://www.w3.org/2000/svg">
<path fill-rule="evenodd" clip-rule="evenodd" d="M30 4.81818V5.51682C38.676 7.58864 45 14.0426 45 21.6818V38.5455H48V43.3636H0V38.5455H3V21.6818C3.00028 18.0498 4.46021 14.5147 7.16272 11.6023C9.86522 8.68994 13.666 6.55566 18 5.51682V4.81818C18 3.54032 18.6321 2.3148 19.7574 1.41121C20.8826 0.507629 22.4087 0 24 0C25.5913 0 27.1174 0.507629 28.2426 1.41121C29.3679 2.3148 30 3.54032 30 4.81818ZM9 38.5455H39V21.6818C39 18.4872 37.4196 15.4234 34.6066 13.1644C31.7936 10.9054 27.9782 9.63636 24 9.63636C20.0218 9.63636 16.2064 10.9054 13.3934 13.1644C10.5804 15.4234 9 18.4872 9 21.6818V38.5455ZM30 48.1818V45.7727H18V48.1818C18 49.4597 18.6321 50.6852 19.7574 51.5888C20.8826 52.4924 22.4087 53 24 53C25.5913 53 27.1174 52.4924 28.2426 51.5888C29.3679 50.6852 30 49.4597 30 48.1818Z" fill="black"/>
</svg>
