<svg width="48" height="48" viewBox="0 0 48 48" fill="none" xmlns="http://www.w3.org/2000/svg">
<path d="M37.85 21.93H25.91V9.99C25.91 9.46222 25.7003 8.95606 25.3271 8.58286C24.9539 8.20966 24.4478 8 23.92 8C23.3922 8 22.8861 8.20966 22.5129 8.58286C22.1397 8.95606 21.93 9.46222 21.93 9.99V21.93H9.99C9.46222 21.93 8.95606 22.1397 8.58286 22.5129C8.20966 22.8861 8 23.3922 8 23.92C8 24.4478 8.20966 24.9539 8.58286 25.3271C8.95606 25.7003 9.46222 25.91 9.99 25.91H21.93V37.85C21.93 38.3778 22.1397 38.8839 22.5129 39.2571C22.8861 39.6303 23.3922 39.84 23.92 39.84C24.4478 39.84 24.9539 39.6303 25.3271 39.2571C25.7003 38.8839 25.91 38.3778 25.91 37.85V25.91H37.85C38.3778 25.91 38.8839 25.7003 39.2571 25.3271C39.6303 24.9539 39.84 24.4478 39.84 23.92C39.84 23.3922 39.6303 22.8861 39.2571 22.5129C38.8839 22.1397 38.3778 21.93 37.85 21.93Z" fill="#231F20"/>
</svg>
